<mxfile host="app.diagrams.net" modified="2020-11-23T08:15:36.640Z" agent="5.0 (Windows NT 10.0; Win64; x64) AppleWebKit/537.36 (KHTML, like Gecko) Chrome/86.0.4240.198 Safari/537.36" etag="OhhThAc17TRtuOpvlv_3" version="13.10.1" type="github">
  <diagram id="5vpmCnWidM8x6iWcZ2X5" name="Page-1">
    <mxGraphModel dx="870" dy="627" grid="1" gridSize="10" guides="1" tooltips="1" connect="1" arrows="1" fold="1" page="1" pageScale="1" pageWidth="827" pageHeight="1169" background="none" math="0" shadow="0">
      <root>
        <mxCell id="0" />
        <mxCell id="1" parent="0" />
        <mxCell id="fM8OL-0WpngBRwXDm8zp-1" value="" style="shape=table;html=1;whiteSpace=wrap;startSize=0;container=1;collapsible=0;childLayout=tableLayout;strokeWidth=2;perimeterSpacing=1;" vertex="1" parent="1">
          <mxGeometry x="457.5" y="30" width="672" height="672" as="geometry" />
        </mxCell>
        <mxCell id="fM8OL-0WpngBRwXDm8zp-2" value="" style="shape=partialRectangle;html=1;whiteSpace=wrap;collapsible=0;dropTarget=0;pointerEvents=0;fillColor=none;top=0;left=0;bottom=0;right=0;points=[[0,0.5],[1,0.5]];portConstraint=eastwest;" vertex="1" parent="fM8OL-0WpngBRwXDm8zp-1">
          <mxGeometry width="672" height="168" as="geometry" />
        </mxCell>
        <mxCell id="fM8OL-0WpngBRwXDm8zp-3" value="&lt;font face=&quot;Times New Roman&quot; style=&quot;font-size: 18px&quot;&gt;&lt;b&gt;Sentence&lt;/b&gt;&lt;/font&gt;" style="shape=partialRectangle;html=1;whiteSpace=wrap;connectable=0;overflow=hidden;fillColor=none;top=0;left=0;bottom=0;right=0;" vertex="1" parent="fM8OL-0WpngBRwXDm8zp-2">
          <mxGeometry width="98" height="168" as="geometry" />
        </mxCell>
        <mxCell id="fM8OL-0WpngBRwXDm8zp-4" value="&lt;p style=&quot;line-height: normal ; margin-top: 0pt ; margin-bottom: 0pt ; margin-left: 0in ; margin-right: 0in ; text-indent: 0in ; text-align: left ; direction: ltr ; unicode-bidi: embed ; word-break: normal&quot;&gt;&lt;font style=&quot;font-size: 18px&quot; face=&quot;Times New Roman&quot;&gt;&lt;span&gt;...is organizing an expedition starting in November in &lt;/span&gt;&lt;span style=&quot;color: rgb(0 , 176 , 240) ; font-weight: bold&quot;&gt;Jinghong&lt;/span&gt;&lt;span&gt; , a small city in the &lt;/span&gt;&lt;span style=&quot;color: rgb(255 , 192 , 0) ; font-weight: bold&quot;&gt;Yunnan&lt;/span&gt;&lt;span&gt; province in &lt;/span&gt;&lt;span style=&quot;color: red ; font-weight: bold&quot;&gt;China&lt;/span&gt;&lt;/font&gt;&lt;span style=&quot;font-size: 18.0pt ; color: red&quot;&gt; &lt;/span&gt;&lt;/p&gt;" style="shape=partialRectangle;html=1;whiteSpace=wrap;connectable=0;overflow=hidden;fillColor=none;top=0;left=0;bottom=0;right=0;" vertex="1" parent="fM8OL-0WpngBRwXDm8zp-2">
          <mxGeometry x="98" width="222" height="168" as="geometry" />
        </mxCell>
        <mxCell id="fM8OL-0WpngBRwXDm8zp-5" value="&lt;font style=&quot;font-size: 18px&quot; face=&quot;Times New Roman&quot;&gt;&amp;nbsp;We &#39; re providing a new outlet for them for distribution , &#39;&#39; said &lt;font color=&quot;#00b0f0&quot;&gt;&lt;b&gt;Chad Hurley&lt;/b&gt;&lt;/font&gt; , chief executive and co-founder of &lt;b&gt;&lt;font color=&quot;#ffc000&quot;&gt;YouTube&lt;/font&gt;&lt;/b&gt; , a division of &lt;b&gt;&lt;font color=&quot;#ff0000&quot;&gt;Google&lt;/font&gt;&lt;/b&gt; .&lt;/font&gt;" style="shape=partialRectangle;html=1;whiteSpace=wrap;connectable=0;overflow=hidden;fillColor=none;top=0;left=0;bottom=0;right=0;align=left;" vertex="1" parent="fM8OL-0WpngBRwXDm8zp-2">
          <mxGeometry x="320" width="222" height="168" as="geometry" />
        </mxCell>
        <mxCell id="fM8OL-0WpngBRwXDm8zp-6" value="" style="shape=partialRectangle;html=1;whiteSpace=wrap;connectable=0;overflow=hidden;fillColor=none;top=0;left=0;bottom=0;right=0;" vertex="1" parent="fM8OL-0WpngBRwXDm8zp-2">
          <mxGeometry x="542" width="130" height="168" as="geometry" />
        </mxCell>
        <mxCell id="fM8OL-0WpngBRwXDm8zp-7" value="" style="shape=partialRectangle;html=1;whiteSpace=wrap;collapsible=0;dropTarget=0;pointerEvents=0;fillColor=none;top=0;left=0;bottom=0;right=0;points=[[0,0.5],[1,0.5]];portConstraint=eastwest;" vertex="1" parent="fM8OL-0WpngBRwXDm8zp-1">
          <mxGeometry y="168" width="672" height="168" as="geometry" />
        </mxCell>
        <mxCell id="fM8OL-0WpngBRwXDm8zp-8" value="&lt;b&gt;&lt;font face=&quot;Times New Roman&quot; style=&quot;font-size: 18px&quot;&gt;BptrNet&lt;/font&gt;&lt;/b&gt;" style="shape=partialRectangle;html=1;whiteSpace=wrap;connectable=0;overflow=hidden;fillColor=none;top=0;left=0;bottom=0;right=0;" vertex="1" parent="fM8OL-0WpngBRwXDm8zp-7">
          <mxGeometry width="98" height="168" as="geometry" />
        </mxCell>
        <mxCell id="fM8OL-0WpngBRwXDm8zp-9" value="" style="shape=partialRectangle;html=1;whiteSpace=wrap;connectable=0;overflow=hidden;fillColor=none;top=0;left=0;bottom=0;right=0;" vertex="1" parent="fM8OL-0WpngBRwXDm8zp-7">
          <mxGeometry x="98" width="222" height="168" as="geometry" />
        </mxCell>
        <mxCell id="fM8OL-0WpngBRwXDm8zp-10" value="" style="shape=partialRectangle;html=1;whiteSpace=wrap;connectable=0;overflow=hidden;fillColor=none;top=0;left=0;bottom=0;right=0;" vertex="1" parent="fM8OL-0WpngBRwXDm8zp-7">
          <mxGeometry x="320" width="222" height="168" as="geometry" />
        </mxCell>
        <mxCell id="fM8OL-0WpngBRwXDm8zp-11" value="" style="shape=partialRectangle;html=1;whiteSpace=wrap;connectable=0;overflow=hidden;fillColor=none;top=0;left=0;bottom=0;right=0;" vertex="1" parent="fM8OL-0WpngBRwXDm8zp-7">
          <mxGeometry x="542" width="130" height="168" as="geometry" />
        </mxCell>
        <mxCell id="fM8OL-0WpngBRwXDm8zp-12" value="" style="shape=partialRectangle;html=1;whiteSpace=wrap;collapsible=0;dropTarget=0;pointerEvents=0;fillColor=none;top=0;left=0;bottom=0;right=0;points=[[0,0.5],[1,0.5]];portConstraint=eastwest;" vertex="1" parent="fM8OL-0WpngBRwXDm8zp-1">
          <mxGeometry y="336" width="672" height="168" as="geometry" />
        </mxCell>
        <mxCell id="fM8OL-0WpngBRwXDm8zp-13" value="&lt;font style=&quot;font-size: 18px&quot; face=&quot;Times New Roman&quot;&gt;&lt;b&gt;TPLinker&lt;/b&gt;&lt;/font&gt;" style="shape=partialRectangle;html=1;whiteSpace=wrap;connectable=0;overflow=hidden;fillColor=none;top=0;left=0;bottom=0;right=0;" vertex="1" parent="fM8OL-0WpngBRwXDm8zp-12">
          <mxGeometry width="98" height="168" as="geometry" />
        </mxCell>
        <mxCell id="fM8OL-0WpngBRwXDm8zp-14" value="" style="shape=partialRectangle;html=1;whiteSpace=wrap;connectable=0;overflow=hidden;fillColor=none;top=0;left=0;bottom=0;right=0;" vertex="1" parent="fM8OL-0WpngBRwXDm8zp-12">
          <mxGeometry x="98" width="222" height="168" as="geometry" />
        </mxCell>
        <mxCell id="fM8OL-0WpngBRwXDm8zp-15" value="" style="shape=partialRectangle;html=1;whiteSpace=wrap;connectable=0;overflow=hidden;fillColor=none;top=0;left=0;bottom=0;right=0;" vertex="1" parent="fM8OL-0WpngBRwXDm8zp-12">
          <mxGeometry x="320" width="222" height="168" as="geometry" />
        </mxCell>
        <mxCell id="fM8OL-0WpngBRwXDm8zp-16" value="" style="shape=partialRectangle;html=1;whiteSpace=wrap;connectable=0;overflow=hidden;fillColor=none;top=0;left=0;bottom=0;right=0;" vertex="1" parent="fM8OL-0WpngBRwXDm8zp-12">
          <mxGeometry x="542" width="130" height="168" as="geometry" />
        </mxCell>
        <mxCell id="fM8OL-0WpngBRwXDm8zp-17" value="" style="shape=partialRectangle;html=1;whiteSpace=wrap;collapsible=0;dropTarget=0;pointerEvents=0;fillColor=none;top=0;left=0;bottom=0;right=0;points=[[0,0.5],[1,0.5]];portConstraint=eastwest;" vertex="1" parent="fM8OL-0WpngBRwXDm8zp-1">
          <mxGeometry y="504" width="672" height="168" as="geometry" />
        </mxCell>
        <mxCell id="fM8OL-0WpngBRwXDm8zp-18" value="&lt;p&gt;&lt;font face=&quot;Times New Roman&quot; size=&quot;1&quot;&gt;&lt;b style=&quot;font-size: 18px&quot;&gt;Ground Truth&lt;/b&gt;&lt;/font&gt;&lt;/p&gt;" style="shape=partialRectangle;html=1;whiteSpace=wrap;connectable=0;overflow=hidden;fillColor=none;top=0;left=0;bottom=0;right=0;" vertex="1" parent="fM8OL-0WpngBRwXDm8zp-17">
          <mxGeometry width="98" height="168" as="geometry" />
        </mxCell>
        <mxCell id="fM8OL-0WpngBRwXDm8zp-19" value="" style="shape=partialRectangle;html=1;whiteSpace=wrap;connectable=0;overflow=hidden;fillColor=none;top=0;left=0;bottom=0;right=0;" vertex="1" parent="fM8OL-0WpngBRwXDm8zp-17">
          <mxGeometry x="98" width="222" height="168" as="geometry" />
        </mxCell>
        <mxCell id="fM8OL-0WpngBRwXDm8zp-20" value="" style="shape=partialRectangle;html=1;whiteSpace=wrap;connectable=0;overflow=hidden;fillColor=none;top=0;left=0;bottom=0;right=0;" vertex="1" parent="fM8OL-0WpngBRwXDm8zp-17">
          <mxGeometry x="320" width="222" height="168" as="geometry" />
        </mxCell>
        <mxCell id="fM8OL-0WpngBRwXDm8zp-21" value="" style="shape=partialRectangle;html=1;whiteSpace=wrap;connectable=0;overflow=hidden;fillColor=none;top=0;left=0;bottom=0;right=0;" vertex="1" parent="fM8OL-0WpngBRwXDm8zp-17">
          <mxGeometry x="542" width="130" height="168" as="geometry" />
        </mxCell>
        <mxCell id="fM8OL-0WpngBRwXDm8zp-39" value="&lt;span style=&quot;color: rgb(0 , 176 , 240) ; font-family: &amp;#34;times new roman&amp;#34; ; font-weight: 700 ; text-align: left&quot;&gt;&lt;font style=&quot;font-size: 14px&quot;&gt;Jinghong&lt;/font&gt;&lt;/span&gt;" style="text;html=1;strokeColor=none;fillColor=none;align=center;verticalAlign=middle;whiteSpace=wrap;rounded=0;" vertex="1" parent="1">
          <mxGeometry x="570" y="290" width="40" height="20" as="geometry" />
        </mxCell>
        <mxCell id="fM8OL-0WpngBRwXDm8zp-40" value="" style="endArrow=none;html=1;startArrow=blockThin;startFill=1;endFill=0;" edge="1" parent="1">
          <mxGeometry width="50" height="50" relative="1" as="geometry">
            <mxPoint x="590" y="290" as="sourcePoint" />
            <mxPoint x="640" y="240" as="targetPoint" />
            <Array as="points">
              <mxPoint x="610" y="270" />
            </Array>
          </mxGeometry>
        </mxCell>
        <mxCell id="fM8OL-0WpngBRwXDm8zp-41" value="contains" style="edgeLabel;html=1;align=center;verticalAlign=middle;resizable=0;points=[];" vertex="1" connectable="0" parent="fM8OL-0WpngBRwXDm8zp-40">
          <mxGeometry x="0.37" y="-2" relative="1" as="geometry">
            <mxPoint as="offset" />
          </mxGeometry>
        </mxCell>
        <mxCell id="fM8OL-0WpngBRwXDm8zp-42" value="&lt;span style=&quot;color: rgb(255 , 192 , 0) ; font-family: &amp;#34;times new roman&amp;#34; ; font-size: 14px ; font-weight: 700 ; text-align: left&quot;&gt;Yunnan&lt;/span&gt;" style="text;html=1;strokeColor=none;fillColor=none;align=center;verticalAlign=middle;whiteSpace=wrap;rounded=0;" vertex="1" parent="1">
          <mxGeometry x="640" y="220" width="40" height="20" as="geometry" />
        </mxCell>
        <mxCell id="fM8OL-0WpngBRwXDm8zp-43" value="" style="endArrow=none;html=1;startArrow=blockThin;startFill=1;endFill=0;rounded=1;exitX=1;exitY=1;exitDx=0;exitDy=0;entryX=0.5;entryY=0;entryDx=0;entryDy=0;" edge="1" parent="1" source="fM8OL-0WpngBRwXDm8zp-42" target="fM8OL-0WpngBRwXDm8zp-45">
          <mxGeometry width="50" height="50" relative="1" as="geometry">
            <mxPoint x="689" y="290" as="sourcePoint" />
            <mxPoint x="739" y="240" as="targetPoint" />
          </mxGeometry>
        </mxCell>
        <mxCell id="fM8OL-0WpngBRwXDm8zp-44" value="contains" style="edgeLabel;html=1;align=center;verticalAlign=middle;resizable=0;points=[];" vertex="1" connectable="0" parent="fM8OL-0WpngBRwXDm8zp-43">
          <mxGeometry x="0.2233" y="8" relative="1" as="geometry">
            <mxPoint as="offset" />
          </mxGeometry>
        </mxCell>
        <mxCell id="fM8OL-0WpngBRwXDm8zp-45" value="&lt;span style=&quot;color: rgb(255 , 0 , 0) ; font-family: &amp;#34;times new roman&amp;#34; ; font-weight: 700 ; text-align: left&quot;&gt;&lt;font style=&quot;font-size: 14px&quot;&gt;China&lt;/font&gt;&lt;/span&gt;" style="text;html=1;strokeColor=none;fillColor=none;align=center;verticalAlign=middle;whiteSpace=wrap;rounded=0;" vertex="1" parent="1">
          <mxGeometry x="717.5" y="320" width="40" height="20" as="geometry" />
        </mxCell>
        <mxCell id="fM8OL-0WpngBRwXDm8zp-46" value="" style="endArrow=none;html=1;startArrow=blockThin;startFill=1;endFill=0;rounded=1;strokeColor=#4D9900;" edge="1" parent="1">
          <mxGeometry width="50" height="50" relative="1" as="geometry">
            <mxPoint x="620" y="300" as="sourcePoint" />
            <mxPoint x="718" y="330" as="targetPoint" />
          </mxGeometry>
        </mxCell>
        <mxCell id="fM8OL-0WpngBRwXDm8zp-47" value="&lt;font color=&quot;#009900&quot;&gt;contains&lt;/font&gt;" style="edgeLabel;html=1;align=center;verticalAlign=middle;resizable=0;points=[];" vertex="1" connectable="0" parent="fM8OL-0WpngBRwXDm8zp-46">
          <mxGeometry x="0.37" y="-2" relative="1" as="geometry">
            <mxPoint x="-17.35" y="-12.4" as="offset" />
          </mxGeometry>
        </mxCell>
        <mxCell id="fM8OL-0WpngBRwXDm8zp-57" value="&lt;span style=&quot;color: rgb(0 , 176 , 240) ; font-family: &amp;#34;times new roman&amp;#34; ; font-weight: 700 ; text-align: left&quot;&gt;&lt;font style=&quot;font-size: 14px&quot;&gt;Jinghong&lt;/font&gt;&lt;/span&gt;" style="text;html=1;strokeColor=none;fillColor=none;align=center;verticalAlign=middle;whiteSpace=wrap;rounded=0;" vertex="1" parent="1">
          <mxGeometry x="570" y="630" width="40" height="20" as="geometry" />
        </mxCell>
        <mxCell id="fM8OL-0WpngBRwXDm8zp-58" value="" style="endArrow=none;html=1;startArrow=blockThin;startFill=1;endFill=0;" edge="1" parent="1">
          <mxGeometry width="50" height="50" relative="1" as="geometry">
            <mxPoint x="590" y="630" as="sourcePoint" />
            <mxPoint x="640" y="580" as="targetPoint" />
            <Array as="points">
              <mxPoint x="610" y="610" />
            </Array>
          </mxGeometry>
        </mxCell>
        <mxCell id="fM8OL-0WpngBRwXDm8zp-59" value="contains" style="edgeLabel;html=1;align=center;verticalAlign=middle;resizable=0;points=[];" vertex="1" connectable="0" parent="fM8OL-0WpngBRwXDm8zp-58">
          <mxGeometry x="0.37" y="-2" relative="1" as="geometry">
            <mxPoint as="offset" />
          </mxGeometry>
        </mxCell>
        <mxCell id="fM8OL-0WpngBRwXDm8zp-60" value="&lt;span style=&quot;color: rgb(255 , 192 , 0) ; font-family: &amp;#34;times new roman&amp;#34; ; font-size: 14px ; font-weight: 700 ; text-align: left&quot;&gt;Yunnan&lt;/span&gt;" style="text;html=1;strokeColor=none;fillColor=none;align=center;verticalAlign=middle;whiteSpace=wrap;rounded=0;" vertex="1" parent="1">
          <mxGeometry x="640" y="560" width="40" height="20" as="geometry" />
        </mxCell>
        <mxCell id="fM8OL-0WpngBRwXDm8zp-61" value="" style="endArrow=none;html=1;startArrow=blockThin;startFill=1;endFill=0;rounded=1;exitX=1;exitY=1;exitDx=0;exitDy=0;entryX=0.5;entryY=0;entryDx=0;entryDy=0;" edge="1" parent="1" source="fM8OL-0WpngBRwXDm8zp-60" target="fM8OL-0WpngBRwXDm8zp-63">
          <mxGeometry width="50" height="50" relative="1" as="geometry">
            <mxPoint x="689" y="630" as="sourcePoint" />
            <mxPoint x="739" y="580" as="targetPoint" />
          </mxGeometry>
        </mxCell>
        <mxCell id="fM8OL-0WpngBRwXDm8zp-62" value="contains" style="edgeLabel;html=1;align=center;verticalAlign=middle;resizable=0;points=[];" vertex="1" connectable="0" parent="fM8OL-0WpngBRwXDm8zp-61">
          <mxGeometry x="0.2233" y="8" relative="1" as="geometry">
            <mxPoint as="offset" />
          </mxGeometry>
        </mxCell>
        <mxCell id="fM8OL-0WpngBRwXDm8zp-63" value="&lt;span style=&quot;color: rgb(255 , 0 , 0) ; font-family: &amp;#34;times new roman&amp;#34; ; font-weight: 700 ; text-align: left&quot;&gt;&lt;font style=&quot;font-size: 14px&quot;&gt;China&lt;/font&gt;&lt;/span&gt;" style="text;html=1;strokeColor=none;fillColor=none;align=center;verticalAlign=middle;whiteSpace=wrap;rounded=0;" vertex="1" parent="1">
          <mxGeometry x="717.5" y="660" width="40" height="20" as="geometry" />
        </mxCell>
        <mxCell id="fM8OL-0WpngBRwXDm8zp-64" value="" style="endArrow=none;html=1;startArrow=blockThin;startFill=1;endFill=0;rounded=1;strokeColor=#4D9900;" edge="1" parent="1">
          <mxGeometry width="50" height="50" relative="1" as="geometry">
            <mxPoint x="620" y="640" as="sourcePoint" />
            <mxPoint x="718" y="670" as="targetPoint" />
          </mxGeometry>
        </mxCell>
        <mxCell id="fM8OL-0WpngBRwXDm8zp-65" value="&lt;font color=&quot;#009900&quot;&gt;contains&lt;/font&gt;" style="edgeLabel;html=1;align=center;verticalAlign=middle;resizable=0;points=[];" vertex="1" connectable="0" parent="fM8OL-0WpngBRwXDm8zp-64">
          <mxGeometry x="0.37" y="-2" relative="1" as="geometry">
            <mxPoint x="-17.35" y="-12.4" as="offset" />
          </mxGeometry>
        </mxCell>
        <mxCell id="fM8OL-0WpngBRwXDm8zp-66" value="&lt;span style=&quot;color: rgb(0 , 176 , 240) ; font-family: &amp;#34;times new roman&amp;#34; ; font-weight: 700 ; text-align: left&quot;&gt;&lt;font style=&quot;font-size: 14px&quot;&gt;Jinghong&lt;/font&gt;&lt;/span&gt;" style="text;html=1;strokeColor=none;fillColor=none;align=center;verticalAlign=middle;whiteSpace=wrap;rounded=0;" vertex="1" parent="1">
          <mxGeometry x="566.25" y="460" width="40" height="20" as="geometry" />
        </mxCell>
        <mxCell id="fM8OL-0WpngBRwXDm8zp-67" value="" style="endArrow=none;html=1;startArrow=blockThin;startFill=1;endFill=0;" edge="1" parent="1">
          <mxGeometry width="50" height="50" relative="1" as="geometry">
            <mxPoint x="586.25" y="460" as="sourcePoint" />
            <mxPoint x="636.25" y="410" as="targetPoint" />
            <Array as="points">
              <mxPoint x="606.25" y="440" />
            </Array>
          </mxGeometry>
        </mxCell>
        <mxCell id="fM8OL-0WpngBRwXDm8zp-68" value="contains" style="edgeLabel;html=1;align=center;verticalAlign=middle;resizable=0;points=[];" vertex="1" connectable="0" parent="fM8OL-0WpngBRwXDm8zp-67">
          <mxGeometry x="0.37" y="-2" relative="1" as="geometry">
            <mxPoint as="offset" />
          </mxGeometry>
        </mxCell>
        <mxCell id="fM8OL-0WpngBRwXDm8zp-69" value="&lt;span style=&quot;color: rgb(255 , 192 , 0) ; font-family: &amp;#34;times new roman&amp;#34; ; font-size: 14px ; font-weight: 700 ; text-align: left&quot;&gt;Yunnan&lt;/span&gt;" style="text;html=1;strokeColor=none;fillColor=none;align=center;verticalAlign=middle;whiteSpace=wrap;rounded=0;" vertex="1" parent="1">
          <mxGeometry x="636.25" y="390" width="40" height="20" as="geometry" />
        </mxCell>
        <mxCell id="fM8OL-0WpngBRwXDm8zp-70" value="" style="endArrow=none;html=1;startArrow=blockThin;startFill=1;endFill=0;rounded=1;exitX=1;exitY=1;exitDx=0;exitDy=0;entryX=0.5;entryY=0;entryDx=0;entryDy=0;" edge="1" parent="1" source="fM8OL-0WpngBRwXDm8zp-69" target="fM8OL-0WpngBRwXDm8zp-72">
          <mxGeometry width="50" height="50" relative="1" as="geometry">
            <mxPoint x="685.25" y="460" as="sourcePoint" />
            <mxPoint x="735.25" y="410" as="targetPoint" />
          </mxGeometry>
        </mxCell>
        <mxCell id="fM8OL-0WpngBRwXDm8zp-71" value="contains" style="edgeLabel;html=1;align=center;verticalAlign=middle;resizable=0;points=[];" vertex="1" connectable="0" parent="fM8OL-0WpngBRwXDm8zp-70">
          <mxGeometry x="0.2233" y="8" relative="1" as="geometry">
            <mxPoint as="offset" />
          </mxGeometry>
        </mxCell>
        <mxCell id="fM8OL-0WpngBRwXDm8zp-72" value="&lt;span style=&quot;color: rgb(255 , 0 , 0) ; font-family: &amp;#34;times new roman&amp;#34; ; font-weight: 700 ; text-align: left&quot;&gt;&lt;font style=&quot;font-size: 14px&quot;&gt;China&lt;/font&gt;&lt;/span&gt;" style="text;html=1;strokeColor=none;fillColor=none;align=center;verticalAlign=middle;whiteSpace=wrap;rounded=0;" vertex="1" parent="1">
          <mxGeometry x="713.75" y="490" width="40" height="20" as="geometry" />
        </mxCell>
      </root>
    </mxGraphModel>
  </diagram>
</mxfile>
